<svg xmlns="http://www.w3.org/2000/svg" viewBox="0 0 200 220" width="200" height="220" role="img" aria-label="Símbolo ModaIA Closet">
  <title>ModaIA Closet — símbolo</title>
  <g transform="translate(100,118)">
    <circle cx="0" cy="-98" r="11" fill="none" stroke="#D4AF37" stroke-width="7"/>
    <rect x="-4" y="-89" width="8" height="24" rx="4" fill="#D4AF37"/>
    <path d="M0,-64 C-23,-64 -62,-48 -64,-32 C-66,-18 -42,-6 -38,20 C-34,46 -66,60 -78,75 C-81,79 -79,82 -74,82 L74,82 C79,82 81,79 78,75 C66,60 34,46 38,20 C42,-6 66,-18 64,-32 C62,-48 23,-64 0,-64 Z" fill="#D4AF37"/>
    <g stroke="#111111" stroke-width="3.4" stroke-linecap="round" fill="none">
      <line x1="-25" y1="-10" x2="25" y2="-10"/>
      <line x1="0" y1="-30" x2="0" y2="10"/>
      <line x1="0" y1="20" x2="20" y2="35"/>
    </g>
    <circle cx="0" cy="-10" r="4.2" fill="#111111"/>
    <circle cx="-25" cy="-10" r="3" fill="#111111"/>
    <circle cx="25" cy="-10" r="3" fill="#111111"/>
    <circle cx="20" cy="35" r="3" fill="#111111"/>
  </g>
</svg>
