<svg xmlns="http://www.w3.org/2000/svg" viewBox="0 0 600 800" width="600" height="800">
  <defs>
    <linearGradient id="bgCasual" x1="0" y1="0" x2="1" y2="1">
      <stop offset="0" stop-color="#F8F6F2"/>
      <stop offset="1" stop-color="#ece5d4"/>
    </linearGradient>
  </defs>
  <rect width="600" height="800" fill="url(#bgCasual)"/>
  <g transform="translate(300,380)">
    <path d="M-110,-210 L-30,-250 Q0,-225 30,-250 L110,-210 L140,-100 L90,-70 L80,-250 Q0,-275 -80,-250 L-90,-70 L-140,-100 Z"
      fill="#111111"/>
    <path d="M-90,-70 L-100,250 Q0,285 100,250 L90,-70 Q0,-45 -90,-70 Z" fill="#111111"/>
    <g fill="#D4AF37">
      <circle cx="-45" cy="30" r="18" opacity="0.9"/>
      <circle cx="10" cy="90" r="12" opacity="0.7"/>
      <circle cx="-20" cy="150" r="9" opacity="0.55"/>
      <circle cx="55" cy="40" r="7" opacity="0.6"/>
    </g>
  </g>
  <text x="300" y="740" text-anchor="middle" font-family="Century Gothic, Futura PT, Avenir Next, Arial, sans-serif" font-size="26" letter-spacing="6" fill="#6B6455">BLUSA CASUAL</text>
</svg>
