<svg xmlns="http://www.w3.org/2000/svg" viewBox="0 0 600 800" width="600" height="800">
  <defs>
    <linearGradient id="bgFormal" x1="0" y1="0" x2="0" y2="1">
      <stop offset="0" stop-color="#F1ECE1"/>
      <stop offset="1" stop-color="#F8F6F2"/>
    </linearGradient>
  </defs>
  <rect width="600" height="800" fill="url(#bgFormal)"/>
  <g transform="translate(300,380)">
    <path d="M-120,-220 L-40,-260 L0,-210 L40,-260 L120,-220 L150,-120 L95,-90 L85,-260 Q0,-290 -85,-260 L-95,-90 L-150,-120 Z"
      fill="#111111"/>
    <path d="M-95,-90 L-110,260 Q0,300 110,260 L95,-90 Q0,-60 -95,-90 Z" fill="#111111"/>
    <path d="M0,-210 L40,-260 Q0,-235 -40,-260 Z" fill="#F8F6F2"/>
    <g stroke="#D4AF37" stroke-width="4" fill="none">
      <line x1="0" y1="-150" x2="0" y2="230"/>
      <circle cx="0" cy="-110" r="4" fill="#D4AF37" stroke="none"/>
      <circle cx="0" cy="-40" r="4" fill="#D4AF37" stroke="none"/>
      <circle cx="0" cy="30" r="4" fill="#D4AF37" stroke="none"/>
      <circle cx="0" cy="100" r="4" fill="#D4AF37" stroke="none"/>
    </g>
  </g>
  <text x="300" y="740" text-anchor="middle" font-family="Century Gothic, Futura PT, Avenir Next, Arial, sans-serif" font-size="26" letter-spacing="6" fill="#6B6455">BLUSA FORMAL</text>
</svg>
