<svg xmlns="http://www.w3.org/2000/svg" viewBox="0 0 600 800" width="600" height="800">
  <defs>
    <linearGradient id="bgJacket" x1="0" y1="0" x2="0" y2="1">
      <stop offset="0" stop-color="#161410"/>
      <stop offset="1" stop-color="#1c1812"/>
    </linearGradient>
  </defs>
  <rect width="600" height="800" fill="url(#bgJacket)"/>
  <g transform="translate(300,380)">
    <path d="M-130,-230 L-45,-270 L-10,-230 L0,-250 L10,-230 L45,-270 L130,-230 L165,-110 L100,-75 L92,-270 L20,-230 L20,270 L-20,270 L-20,-230 L-92,-270 L-100,-75 L-165,-110 Z"
      fill="#F8F6F2"/>
    <path d="M-20,-230 L-92,-270 L-100,-75 L-20,-110 Z" fill="#D4AF37" opacity="0.85"/>
    <path d="M20,-230 L92,-270 L100,-75 L20,-110 Z" fill="#D4AF37" opacity="0.85"/>
  </g>
  <text x="300" y="740" text-anchor="middle" font-family="Century Gothic, Futura PT, Avenir Next, Arial, sans-serif" font-size="26" letter-spacing="6" fill="#D4AF37">CHAQUETA</text>
</svg>
